# xmcd CD database file
#
# Track frame offsets:
#	150
#	36558
#	80401
#	130254
#	160843
#	184803
#	197428
#	226171
#	248656
#	271138
#
# Disc length: 3966 seconds
#
# Revision: 0
# Processed by: cddbd v1.5.2PL0 Copyright (c) Steve Scherf et al.
# Submitted via: CDex 1.70beta2
#
DISCID=7c0f7c0a
DTITLE=Dizzy Gillespie - The Very Best Of Dizzy Gillespie 2/2
DYEAR=2008
DGENRE=Jazz
TTITLE0=01 Carnival
TTITLE1=02 Samba
TTITLE2=03 Cherokee
TTITLE3=04 Unicorn
TTITLE4=05 Free Ride
TTITLE5=06 Contraste
TTITLE6=07 Woodyn' You
TTITLE7=08 Exactly Like You
TTITLE8=09 Jambo
TTITLE9=10 St. Louis Blues
EXTD=YEAR: 2008
EXTT0=
EXTT1=
EXTT2=
EXTT3=
EXTT4=
EXTT5=
EXTT6=
EXTT7=
EXTT8=
EXTT9=
PLAYORDER=
